<svg aria-hidden="true" style="position:absolute;width:0;height:0;overflow:hidden" xmlns="http://www.w3.org/2000/svg">
  <defs>
    <symbol id="icon-arrow-down" viewBox="0 0 32 32">
      <path stroke-linecap="round" stroke-width="2.667" d="m24 12-8 8-8-8"/>
    </symbol>
    <symbol id="icon-arrow-order" viewBox="0 0 32 32">
      <path fill="#00b068" style="fill:var(--color1, #00b068)" d="M1.067 14.933a1.067 1.067 0 0 0 0 2.134v-2.133zm30.621 1.821a1.065 1.065 0 0 0 0-1.508L24.9 8.458a1.065 1.065 0 1 0-1.508 1.508L29.426 16l-6.034 6.034a1.065 1.065 0 1 0 1.508 1.508l6.788-6.788zm-30.621.313h29.867v-2.133H1.067v2.133z"/>
    </symbol>
    <symbol id="icon-arrow-reviews-left" viewBox="0 0 32 32">
      <path fill="none" stroke="#e4e5e6" style="stroke:var(--color2, #e4e5e6)" stroke-linejoin="round" stroke-linecap="round" stroke-width="2.667" d="M26.667 16H5.334M13.333 24l-8-8 8-8"/>
    </symbol>
    <symbol id="icon-arrow-reviews-right" viewBox="0 0 32 32">
      <path stroke-linejoin="round" stroke-linecap="round" stroke-width="2.667" d="M5.333 16h21.333M18.667 8l8 8-8 8"/>
    </symbol>
    <symbol id="icon-arrow-up" viewBox="0 0 32 32">
      <path stroke-linecap="round" stroke-width="2.667" d="m24 20-8-8-8 8"/>
    </symbol>
    <symbol id="icon-arrow-visit" viewBox="0 0 32 32">
      <path fill="none" stroke="#00b068" style="stroke:var(--color1, #00b068)" stroke-linejoin="round" stroke-linecap="round" stroke-width="2.667" d="M6.333 25.667 25.666 6.334m.001-.001h-18m18 0v18"/>
    </symbol>
    <symbol id="icon-brush" viewBox="0 0 32 32">
      <path fill="none" stroke="#00b068" style="stroke:var(--color1, #00b068)" stroke-linejoin="round" stroke-linecap="round" stroke-width="2.667" d="M17.037 20.001 12 14.964M2.667 29.332c2.667 0 6.144.456 7.966-1.367a4.668 4.668 0 0 0-6.6-6.6c-1.823 1.822 0 5.3-1.367 7.967z"/>
      <path fill="none" stroke="#00b068" style="stroke:var(--color1, #00b068)" stroke-linejoin="round" stroke-linecap="round" stroke-width="2.667" d="M10.667 21.332c-.655-.655-.983-.983-1.168-1.326a2.668 2.668 0 0 1 .05-2.623c.198-.336.538-.651 1.218-1.28L23.924 3.92a2.94 2.94 0 0 1 4.153 4.153L15.894 21.23c-.63.68-.944 1.02-1.28 1.218-.805.475-1.8.495-2.623.05-.343-.185-.671-.513-1.326-1.168z"/>
    </symbol>
    <symbol id="icon-dot-black" viewBox="0 0 32 32">
      <path d="m18.809 10.866-4.92-.172a2.462 2.462 0 0 0-2.546 2.374l-.172 4.92a2.462 2.462 0 0 0 2.374 2.546l4.92.172a2.462 2.462 0 0 0 2.546-2.374l.172-4.92a2.462 2.462 0 0 0-2.374-2.546z"/>
    </symbol>
    <symbol id="icon-dot-green" viewBox="0 0 32 32">
      <path fill="#00b068" style="fill:var(--color1, #00b068)" d="M18.667 10.667h-5.333a2.667 2.667 0 0 0-2.667 2.667v5.333a2.667 2.667 0 0 0 2.667 2.667h5.333a2.667 2.667 0 0 0 2.667-2.667v-5.333a2.667 2.667 0 0 0-2.667-2.667z"/>
    </symbol>
    <symbol id="icon-dot-white" viewBox="0 0 32 32">
      <path fill="#f0f0f0" style="fill:var(--color3, #f0f0f0)" d="m18.809 10.866-4.92-.172a2.462 2.462 0 0 0-2.546 2.374l-.172 4.92a2.462 2.462 0 0 0 2.374 2.546l4.92.172a2.462 2.462 0 0 0 2.546-2.374l.172-4.92a2.462 2.462 0 0 0-2.374-2.546z"/>
    </symbol>
    <symbol id="icon-e-mail" viewBox="0 0 32 32">
      <path fill="none" stroke="#00b068" style="stroke:var(--color1, #00b068)" stroke-linejoin="round" stroke-linecap="round" stroke-width="1.333" d="M29 9v14a3.004 3.004 0 0 1-3 3H6a3.004 3.004 0 0 1-3-3V9m26 0a3.004 3.004 0 0 0-3-3H6a3.004 3.004 0 0 0-3 3m26 0v.324a2.998 2.998 0 0 1-1.427 2.555l-10 6.153a3.004 3.004 0 0 1-3.146 0l-10-6.152A3.001 3.001 0 0 1 3 9.325V9"/>
    </symbol>
    <symbol id="icon-hourglass" viewBox="0 0 32 32">
      <path fill="none" stroke="#00b068" style="stroke:var(--color1, #00b068)" stroke-linejoin="round" stroke-linecap="round" stroke-width="2.667" d="M24.217 2.667H7.783c-.617 0-1.117.5-1.117 1.117a13.4 13.4 0 0 0 3.925 9.475l1.626 1.626c.161.161.242.242.3.32a1.335 1.335 0 0 1 0 1.594c-.058.077-.139.158-.3.32l-1.626 1.626a13.4 13.4 0 0 0-3.925 9.475c0 .617.5 1.117 1.117 1.117h16.434c.617 0 1.117-.5 1.117-1.117a13.4 13.4 0 0 0-3.925-9.475l-1.626-1.626c-.161-.161-.242-.242-.3-.32a1.332 1.332 0 0 1 0-1.594c.058-.077.139-.158.3-.32l1.626-1.626a13.4 13.4 0 0 0 3.925-9.475c0-.617-.5-1.117-1.117-1.117z"/>
    </symbol>
    <symbol id="icon-location" viewBox="0 0 32 32">
      <path fill="none" stroke="#00b068" style="stroke:var(--color1, #00b068)" stroke-linejoin="round" stroke-linecap="round" stroke-width="1.333" d="M20 14a4.003 4.003 0 0 1-4 4 4.003 4.003 0 0 1-4-4 4.003 4.003 0 0 1 4-4 4.003 4.003 0 0 1 4 4v0z"/>
      <path fill="none" stroke="#00b068" style="stroke:var(--color1, #00b068)" stroke-linejoin="round" stroke-linecap="round" stroke-width="1.333" d="M26 14c0 9.523-10 15-10 15S6 23.523 6 14a10.001 10.001 0 0 1 20 0v0z"/>
    </symbol>
    <symbol id="icon-menu-dark" viewBox="0 0 32 32">
      <path fill="#f0f0f0" style="fill:var(--color3, #f0f0f0)" d="M5.334 23.026v-1.333h21.333v1.333H5.334zm0-6.36v-1.333h21.333v1.333H5.334zm0-6.36V8.973h21.333v1.333H5.334z"/>
    </symbol>
    <symbol id="icon-menu-light" viewBox="0 0 32 32">
      <path d="M5.334 23.027v-1.333h21.333v1.333H5.334zm0-6.36v-1.333h21.333v1.333H5.334zm0-6.36V8.974h21.333v1.333H5.334z"/>
    </symbol>
    <symbol id="icon-message-chat" viewBox="0 0 32 32">
      <path fill="none" stroke="#00b068" style="stroke:var(--color1, #00b068)" stroke-linejoin="round" stroke-linecap="round" stroke-width="2.667" d="M8.126 14.972A10.66 10.66 0 0 1 8 13.334C8 7.443 12.807 2.667 18.737 2.667s10.737 4.776 10.737 10.667c0 1.331-.245 2.605-.693 3.779-.093.244-.14.366-.161.461s-.029.161-.031.257c-.002.097.011.205.037.42l.537 4.36c.058.472.087.708.009.88a.667.667 0 0 1-.343.335c-.173.075-.409.04-.879-.029l-4.247-.623a2.965 2.965 0 0 0-.434-.048c-.1.001-.169.008-.267.028s-.225.068-.477.163a10.78 10.78 0 0 1-3.787.683c-.558 0-1.105-.042-1.64-.124m-6.923 5.457c3.953 0 7.158-3.283 7.158-7.333s-3.205-7.333-7.158-7.333c-3.953 0-7.158 3.283-7.158 7.333 0 .814.13 1.597.369 2.329.101.309.152.464.168.57.017.11.02.172.014.284-.006.107-.033.227-.086.469l-.815 3.682 3.993-.545c.218-.03.327-.045.422-.044.1.001.153.006.252.026.093.019.232.067.51.165a6.994 6.994 0 0 0 2.332.398z"/>
    </symbol>
    <symbol id="icon-moon" viewBox="0 0 32 32">
      <path fill="#00b068" style="fill:var(--color1, #00b068)" d="M4.8 30.669C10.451 28.2 14.4 22.561 14.4 16S10.451 3.8 4.8 1.331A15.95 15.95 0 0 1 11.2 0c8.837 0 16 7.163 16 16s-7.163 16-16 16a15.95 15.95 0 0 1-6.4-1.331z"/>
    </symbol>
    <symbol id="icon-phone" viewBox="0 0 32 32">
      <path fill="none" stroke="#00b068" style="stroke:var(--color1, #00b068)" stroke-linejoin="round" stroke-linecap="round" stroke-width="1.333" d="M3 9c0 11.045 8.955 20 20 20h3a3.004 3.004 0 0 0 3-3v-1.829a1.5 1.5 0 0 0-1.136-1.455l-5.897-1.475a1.498 1.498 0 0 0-1.564.556l-1.293 1.724c-.376.501-1.025.723-1.613.507a16.028 16.028 0 0 1-9.524-9.524c-.216-.588.005-1.237.507-1.613l1.724-1.293c.484-.361.703-.979.556-1.564L9.285 4.137A1.498 1.498 0 0 0 7.83 3.001H6.001a3.004 3.004 0 0 0-3 3v3z"/>
    </symbol>
    <symbol id="icon-success-filled" viewBox="0 0 32 32">
      <path fill="#00b068" style="fill:var(--color1, #00b068)" d="M16 2a14.002 14.002 0 0 1 14 14c0 3.713-1.475 7.274-4.101 9.899a13.996 13.996 0 0 1-19.798 0 13.996 13.996 0 0 1 0-19.798A13.998 13.998 0 0 1 16 2zm-1.744 16.762-3.11-3.112a1.196 1.196 0 0 0-.849-.351 1.2 1.2 0 0 0-.849 2.049l3.96 3.96a1.197 1.197 0 0 0 1.698 0l8.2-8.202a1.187 1.187 0 0 0 .358-.85 1.203 1.203 0 0 0-.742-1.115c-.146-.06-.303-.091-.462-.091s-.315.032-.461.094a1.202 1.202 0 0 0-.39.264l-7.354 7.354z"/>
    </symbol>
    <symbol id="icon-user" viewBox="0 0 32 32">
      <path fill="none" stroke="#00b068" style="stroke:var(--color1, #00b068)" stroke-linejoin="round" stroke-linecap="round" stroke-width="2.667" d="M26.667 28c0-1.861 0-2.791-.23-3.548a5.333 5.333 0 0 0-3.556-3.556c-.757-.23-1.687-.23-3.548-.23h-6.667c-1.861 0-2.791 0-3.548.23a5.335 5.335 0 0 0-3.556 3.556c-.23.757-.23 1.687-.23 3.548M16 16a6 6 0 1 0 0-12 6 6 0 0 0 0 12z"/>
    </symbol>
    <symbol id="icon-x-black" viewBox="0 0 32 32">
      <path stroke-linejoin="round" stroke-linecap="round" stroke-width="2.667" d="M24 8 8 24M8 8l16 16"/>
    </symbol>
    <symbol id="icon-x-white" viewBox="0 0 32 32">
      <path fill="none" stroke="#f0f0f0" style="stroke:var(--color3, #f0f0f0)" stroke-linejoin="round" stroke-linecap="round" stroke-width="2" d="M24 8 8 24M8 8l16 16"/>
    </symbol>
    <symbol id="icon-expertise" viewBox="0 0 32 32">
      <path fill="#bcdfd1" style="fill: var(--color1, #bcdfd1)" d="M5.333 0h21.333c2.946 0 5.333 2.388 5.333 5.333v21.333c0 2.946-2.388 5.333-5.333 5.333h-21.333c-2.946 0-5.333-2.388-5.333-5.333v-21.333c0-2.946 2.388-5.333 5.333-5.333z"></path>
      <path fill="none" stroke="#00b068" style="stroke: var(--color2, #00b068)" stroke-linejoin="round" stroke-linecap="round" stroke-miterlimit="4" stroke-width="1.3333" d="M21.333 22c0-0.93 0-1.396-0.115-1.774-0.259-0.852-0.926-1.519-1.778-1.778-0.379-0.115-0.844-0.115-1.774-0.115h-3.333c-0.93 0-1.396 0-1.774 0.115-0.852 0.259-1.519 0.926-1.778 1.778-0.115 0.379-0.115 0.844-0.115 1.774"></path>
      <path fill="none" stroke="#00b068" style="stroke: var(--color2, #00b068)" stroke-linejoin="round" stroke-linecap="round" stroke-miterlimit="4" stroke-width="1.3333" d="M16 16c1.657 0 3-1.343 3-3s-1.343-3-3-3c-1.657 0-3 1.343-3 3s1.343 3 3 3z"></path>
    </symbol>
    <symbol id="icon-communication" viewBox="0 0 32 32">
      <path fill="#bcdfd1" style="fill: var(--color1, #bcdfd1)" d="M5.333 0h21.333c2.946 0 5.333 2.388 5.333 5.333v21.333c0 2.946-2.388 5.333-5.333 5.333h-21.333c-2.946 0-5.333-2.388-5.333-5.333v-21.333c0-2.946 2.388-5.333 5.333-5.333z"></path>
      <path fill="none" stroke="#00b068" style="stroke: var(--color2, #00b068)" stroke-linejoin="round" stroke-linecap="round" stroke-miterlimit="4" stroke-width="1.3333" d="M12.063 15.486c-0.041-0.267-0.063-0.541-0.063-0.819 0-2.946 2.403-5.333 5.368-5.333s5.368 2.388 5.368 5.333c0 0.665-0.123 1.302-0.347 1.89-0.047 0.122-0.070 0.183-0.080 0.231s-0.015 0.080-0.016 0.129c-0.001 0.049 0.005 0.102 0.019 0.21l0.268 2.18c0.029 0.236 0.044 0.354 0.004 0.44-0.034 0.075-0.095 0.135-0.171 0.168-0.087 0.037-0.204 0.020-0.44-0.014l-2.123-0.311c-0.111-0.016-0.166-0.024-0.217-0.024s-0.084 0.004-0.133 0.014c-0.049 0.010-0.113 0.034-0.239 0.081-0.589 0.221-1.227 0.341-1.894 0.341-0.279 0-0.553-0.021-0.82-0.062M13.088 22.667c1.977 0 3.579-1.642 3.579-3.667s-1.602-3.667-3.579-3.667c-1.977 0-3.579 1.642-3.579 3.667 0 0.407 0.065 0.799 0.184 1.164 0.051 0.155 0.076 0.232 0.084 0.285 0.009 0.055 0.010 0.086 0.007 0.142-0.003 0.053-0.016 0.114-0.043 0.234l-0.408 1.841 1.997-0.273c0.109-0.015 0.163-0.022 0.211-0.022 0.050 0 0.077 0.003 0.126 0.013 0.047 0.009 0.116 0.034 0.255 0.083 0.366 0.129 0.758 0.199 1.166 0.199z"></path>
    </symbol>
    <symbol id="icon-art" viewBox="0 0 32 32">
      <path fill="#bcdfd1" style="fill: var(--color1, #bcdfd1)" d="M5.333 0h21.333c2.946 0 5.333 2.388 5.333 5.333v21.333c0 2.946-2.388 5.333-5.333 5.333h-21.333c-2.946 0-5.333-2.388-5.333-5.333v-21.333c0-2.946 2.388-5.333 5.333-5.333z"></path>
      <path fill="none" stroke="#00b068" style="stroke: var(--color2, #00b068)" stroke-linejoin="round" stroke-linecap="round" stroke-miterlimit="4" stroke-width="1.3333" d="M16.519 18l-2.519-2.518"></path>
      <path fill="none" stroke="#00b068" style="stroke: var(--color2, #00b068)" stroke-linejoin="round" stroke-linecap="round" stroke-miterlimit="4" stroke-width="1.3333" d="M9.333 22.666c1.333 0 3.072 0.228 3.983-0.683s0.911-2.389 0-3.3c-0.911-0.911-2.389-0.911-3.3 0s0 2.65-0.683 3.983z"></path>
      <path fill="none" stroke="#00b068" style="stroke: var(--color2, #00b068)" stroke-linejoin="round" stroke-linecap="round" stroke-miterlimit="4" stroke-width="1.3333" d="M13.333 18.666c-0.328-0.328-0.491-0.491-0.584-0.663-0.222-0.411-0.213-0.909 0.025-1.311 0.099-0.168 0.269-0.325 0.609-0.64l6.579-6.091c0.579-0.536 1.479-0.519 2.038 0.039s0.576 1.458 0.039 2.038l-6.091 6.579c-0.315 0.34-0.472 0.51-0.64 0.609-0.403 0.238-0.9 0.247-1.311 0.025-0.172-0.093-0.335-0.256-0.663-0.584z"></path>
    </symbol>
    <symbol id="icon-urgent-execution" viewBox="0 0 32 32">
      <path fill="#bcdfd1" style="fill: var(--color1, #bcdfd1)" d="M5.333 0h21.333c2.946 0 5.333 2.388 5.333 5.333v21.333c0 2.946-2.388 5.333-5.333 5.333h-21.333c-2.946 0-5.333-2.388-5.333-5.333v-21.333c0-2.946 2.388-5.333 5.333-5.333z"></path>
      <path fill="none" stroke="#00b068" style="stroke: var(--color2, #00b068)" stroke-linejoin="round" stroke-linecap="round" stroke-miterlimit="4" stroke-width="1.3333" d="M20.108 9.333h-8.217c-0.308 0-0.558 0.25-0.558 0.558 0 1.777 0.706 3.481 1.962 4.737l0.813 0.813c0.081 0.081 0.121 0.121 0.15 0.16 0.176 0.236 0.176 0.561 0 0.797-0.029 0.039-0.069 0.079-0.15 0.16l-0.813 0.813c-1.256 1.256-1.962 2.96-1.962 4.737 0 0.308 0.25 0.558 0.558 0.558h8.217c0.308 0 0.558-0.25 0.558-0.558 0-1.777-0.706-3.481-1.962-4.737l-0.813-0.813c-0.081-0.081-0.121-0.121-0.15-0.16-0.176-0.236-0.176-0.561 0-0.797 0.029-0.039 0.069-0.079 0.15-0.16l0.813-0.813c1.256-1.256 1.962-2.96 1.962-4.737 0-0.308-0.25-0.558-0.558-0.558z"></path>
    </symbol>
  </defs>
</svg>
