<svg aria-hidden="true" style="position:absolute;width:0;height:0;overflow:hidden" xmlns="http://www.w3.org/2000/svg">
  <defs>
    <symbol id="icon-arrow-down" viewBox="0 0 32 32">
      <path stroke-linecap="round" stroke-width="2.667" d="m24 12-8 8-8-8" />
    </symbol>
    <symbol id="icon-arrow-order" viewBox="0 0 32 32">
      <path fill="#00b068" style="fill:var(--color1, #00b068)"
        d="M1.067 14.933a1.067 1.067 0 0 0 0 2.134v-2.133zm30.621 1.821a1.065 1.065 0 0 0 0-1.508L24.9 8.458a1.065 1.065 0 1 0-1.508 1.508L29.426 16l-6.034 6.034a1.065 1.065 0 1 0 1.508 1.508l6.788-6.788zm-30.621.313h29.867v-2.133H1.067v2.133z" />
    </symbol>
    <symbol id="icon-arrow-reviews-left" viewBox="0 0 32 32">
      <path fill="none" stroke="#e4e5e6" style="stroke:var(--color2, #e4e5e6)" stroke-linejoin="round"
        stroke-linecap="round" stroke-width="2.667" d="M26.667 16H5.334M13.333 24l-8-8 8-8" />
    </symbol>
    <symbol id="icon-arrow-reviews-right" viewBox="0 0 32 32">
      <path stroke-linejoin="round" stroke-linecap="round" stroke-width="2.667" d="M5.333 16h21.333M18.667 8l8 8-8 8" />
    </symbol>
    <symbol id="icon-arrow-up" viewBox="0 0 32 32">
      <path stroke-linecap="round" stroke-width="2.667" d="m24 20-8-8-8 8" />
    </symbol>
    <symbol id="icon-arrow-visit" viewBox="0 0 32 32">
      <path fill="none" stroke="#00b068" style="stroke:var(--color1, #00b068)" stroke-linejoin="round"
        stroke-linecap="round" stroke-width="2.667" d="M6.333 25.667 25.666 6.334m.001-.001h-18m18 0v18" />
    </symbol>
    <symbol id="icon-brush" viewBox="0 0 32 32">
      <path fill="none" stroke="#00b068" style="stroke:var(--color1, #00b068)" stroke-linejoin="round"
        stroke-linecap="round" stroke-width="2.667"
        d="M17.037 20.001 12 14.964M2.667 29.332c2.667 0 6.144.456 7.966-1.367a4.668 4.668 0 0 0-6.6-6.6c-1.823 1.822 0 5.3-1.367 7.967z" />
      <path fill="none" stroke="#00b068" style="stroke:var(--color1, #00b068)" stroke-linejoin="round"
        stroke-linecap="round" stroke-width="2.667"
        d="M10.667 21.332c-.655-.655-.983-.983-1.168-1.326a2.668 2.668 0 0 1 .05-2.623c.198-.336.538-.651 1.218-1.28L23.924 3.92a2.94 2.94 0 0 1 4.153 4.153L15.894 21.23c-.63.68-.944 1.02-1.28 1.218-.805.475-1.8.495-2.623.05-.343-.185-.671-.513-1.326-1.168z" />
    </symbol>
    <symbol id="icon-dot-black" viewBox="0 0 32 32">
      <path
        d="m18.809 10.866-4.92-.172a2.462 2.462 0 0 0-2.546 2.374l-.172 4.92a2.462 2.462 0 0 0 2.374 2.546l4.92.172a2.462 2.462 0 0 0 2.546-2.374l.172-4.92a2.462 2.462 0 0 0-2.374-2.546z" />
    </symbol>
    <symbol id="icon-dot-green" viewBox="0 0 32 32">
      <path fill="#00b068" style="fill:var(--color1, #00b068)"
        d="M18.667 10.667h-5.333a2.667 2.667 0 0 0-2.667 2.667v5.333a2.667 2.667 0 0 0 2.667 2.667h5.333a2.667 2.667 0 0 0 2.667-2.667v-5.333a2.667 2.667 0 0 0-2.667-2.667z" />
    </symbol>
    <symbol id="icon-dot-white" viewBox="0 0 32 32">
      <path fill="#f0f0f0" style="fill:var(--color3, #f0f0f0)"
        d="m18.809 10.866-4.92-.172a2.462 2.462 0 0 0-2.546 2.374l-.172 4.92a2.462 2.462 0 0 0 2.374 2.546l4.92.172a2.462 2.462 0 0 0 2.546-2.374l.172-4.92a2.462 2.462 0 0 0-2.374-2.546z" />
    </symbol>
    <symbol id="icon-e-mail" viewBox="0 0 32 32">
      <path fill="none" stroke="#00b068" style="stroke:var(--color1, #00b068)" stroke-linejoin="round"
        stroke-linecap="round" stroke-width="1.333"
        d="M29 9v14a3.004 3.004 0 0 1-3 3H6a3.004 3.004 0 0 1-3-3V9m26 0a3.004 3.004 0 0 0-3-3H6a3.004 3.004 0 0 0-3 3m26 0v.324a2.998 2.998 0 0 1-1.427 2.555l-10 6.153a3.004 3.004 0 0 1-3.146 0l-10-6.152A3.001 3.001 0 0 1 3 9.325V9" />
    </symbol>
    <symbol id="icon-hourglass" viewBox="0 0 32 32">
      <path fill="none" stroke="#00b068" style="stroke:var(--color1, #00b068)" stroke-linejoin="round"
        stroke-linecap="round" stroke-width="2.667"
        d="M24.217 2.667H7.783c-.617 0-1.117.5-1.117 1.117a13.4 13.4 0 0 0 3.925 9.475l1.626 1.626c.161.161.242.242.3.32a1.335 1.335 0 0 1 0 1.594c-.058.077-.139.158-.3.32l-1.626 1.626a13.4 13.4 0 0 0-3.925 9.475c0 .617.5 1.117 1.117 1.117h16.434c.617 0 1.117-.5 1.117-1.117a13.4 13.4 0 0 0-3.925-9.475l-1.626-1.626c-.161-.161-.242-.242-.3-.32a1.332 1.332 0 0 1 0-1.594c.058-.077.139-.158.3-.32l1.626-1.626a13.4 13.4 0 0 0 3.925-9.475c0-.617-.5-1.117-1.117-1.117z" />
    </symbol>
    <symbol id="icon-location" viewBox="0 0 32 32">
      <path fill="none" stroke="#00b068" style="stroke:var(--color1, #00b068)" stroke-linejoin="round"
        stroke-linecap="round" stroke-width="1.333"
        d="M20 14a4.003 4.003 0 0 1-4 4 4.003 4.003 0 0 1-4-4 4.003 4.003 0 0 1 4-4 4.003 4.003 0 0 1 4 4v0z" />
      <path fill="none" stroke="#00b068" style="stroke:var(--color1, #00b068)" stroke-linejoin="round"
        stroke-linecap="round" stroke-width="1.333"
        d="M26 14c0 9.523-10 15-10 15S6 23.523 6 14a10.001 10.001 0 0 1 20 0v0z" />
    </symbol>
    <symbol id="icon-menu-dark" viewBox="0 0 32 32">
      <path fill="#f0f0f0" style="fill:var(--color3, #f0f0f0)"
        d="M5.334 23.026v-1.333h21.333v1.333H5.334zm0-6.36v-1.333h21.333v1.333H5.334zm0-6.36V8.973h21.333v1.333H5.334z" />
    </symbol>
    <symbol id="icon-menu-light" viewBox="0 0 32 32">
      <path
        d="M5.334 23.027v-1.333h21.333v1.333H5.334zm0-6.36v-1.333h21.333v1.333H5.334zm0-6.36V8.974h21.333v1.333H5.334z" />
    </symbol>
    <symbol id="icon-message-chat" viewBox="0 0 32 32">
      <path fill="none" stroke="#00b068" style="stroke:var(--color1, #00b068)" stroke-linejoin="round"
        stroke-linecap="round" stroke-width="2.667"
        d="M8.126 14.972A10.66 10.66 0 0 1 8 13.334C8 7.443 12.807 2.667 18.737 2.667s10.737 4.776 10.737 10.667c0 1.331-.245 2.605-.693 3.779-.093.244-.14.366-.161.461s-.029.161-.031.257c-.002.097.011.205.037.42l.537 4.36c.058.472.087.708.009.88a.667.667 0 0 1-.343.335c-.173.075-.409.04-.879-.029l-4.247-.623a2.965 2.965 0 0 0-.434-.048c-.1.001-.169.008-.267.028s-.225.068-.477.163a10.78 10.78 0 0 1-3.787.683c-.558 0-1.105-.042-1.64-.124m-6.923 5.457c3.953 0 7.158-3.283 7.158-7.333s-3.205-7.333-7.158-7.333c-3.953 0-7.158 3.283-7.158 7.333 0 .814.13 1.597.369 2.329.101.309.152.464.168.57.017.11.02.172.014.284-.006.107-.033.227-.086.469l-.815 3.682 3.993-.545c.218-.03.327-.045.422-.044.1.001.153.006.252.026.093.019.232.067.51.165a6.994 6.994 0 0 0 2.332.398z" />
    </symbol>
    <symbol id="icon-moon" viewBox="0 0 32 32">
      <path fill="#00b068" style="fill:var(--color1, #00b068)"
        d="M4.8 30.669C10.451 28.2 14.4 22.561 14.4 16S10.451 3.8 4.8 1.331A15.95 15.95 0 0 1 11.2 0c8.837 0 16 7.163 16 16s-7.163 16-16 16a15.95 15.95 0 0 1-6.4-1.331z" />
    </symbol>
    <symbol id="icon-phone" viewBox="0 0 32 32">
      <path fill="none" stroke="#00b068" style="stroke:var(--color1, #00b068)" stroke-linejoin="round"
        stroke-linecap="round" stroke-width="1.333"
        d="M3 9c0 11.045 8.955 20 20 20h3a3.004 3.004 0 0 0 3-3v-1.829a1.5 1.5 0 0 0-1.136-1.455l-5.897-1.475a1.498 1.498 0 0 0-1.564.556l-1.293 1.724c-.376.501-1.025.723-1.613.507a16.028 16.028 0 0 1-9.524-9.524c-.216-.588.005-1.237.507-1.613l1.724-1.293c.484-.361.703-.979.556-1.564L9.285 4.137A1.498 1.498 0 0 0 7.83 3.001H6.001a3.004 3.004 0 0 0-3 3v3z" />
    </symbol>
    <symbol id="icon-success-filled" viewBox="0 0 32 32">
      <path fill="#00b068" style="fill:var(--color1, #00b068)"
        d="M16 2a14.002 14.002 0 0 1 14 14c0 3.713-1.475 7.274-4.101 9.899a13.996 13.996 0 0 1-19.798 0 13.996 13.996 0 0 1 0-19.798A13.998 13.998 0 0 1 16 2zm-1.744 16.762-3.11-3.112a1.196 1.196 0 0 0-.849-.351 1.2 1.2 0 0 0-.849 2.049l3.96 3.96a1.197 1.197 0 0 0 1.698 0l8.2-8.202a1.187 1.187 0 0 0 .358-.85 1.203 1.203 0 0 0-.742-1.115c-.146-.06-.303-.091-.462-.091s-.315.032-.461.094a1.202 1.202 0 0 0-.39.264l-7.354 7.354z" />
    </symbol>
    <symbol id="icon-user" viewBox="0 0 32 32">
      <path fill="none" stroke="#00b068" style="stroke:var(--color1, #00b068)" stroke-linejoin="round"
        stroke-linecap="round" stroke-width="2.667"
        d="M26.667 28c0-1.861 0-2.791-.23-3.548a5.333 5.333 0 0 0-3.556-3.556c-.757-.23-1.687-.23-3.548-.23h-6.667c-1.861 0-2.791 0-3.548.23a5.335 5.335 0 0 0-3.556 3.556c-.23.757-.23 1.687-.23 3.548M16 16a6 6 0 1 0 0-12 6 6 0 0 0 0 12z" />
    </symbol>
    <symbol id="icon-x-black" viewBox="0 0 32 32">
      <path stroke-linejoin="round" stroke-linecap="round" stroke-width="2.667" d="M24 8 8 24M8 8l16 16" />
    </symbol>
    <symbol id="icon-x-white" viewBox="0 0 32 32">
      <path fill="none" stroke="#f0f0f0" style="stroke:var(--color3, #f0f0f0)" stroke-linejoin="round"
        stroke-linecap="round" stroke-width="2" d="M24 8 8 24M8 8l16 16" />
    </symbol>
    <symbol id="icon-expertise" viewBox="0 0 32 32">
      <path fill="none" stroke="#00b068" style="stroke: var(--color1, #00b068)" stroke-linejoin="round"
        stroke-linecap="round" stroke-miterlimit="4" stroke-width="2.6667"
        d="M26.667 28c0-1.861 0-2.791-0.23-3.548-0.517-1.705-1.851-3.039-3.556-3.556-0.757-0.23-1.687-0.23-3.548-0.23h-6.667c-1.861 0-2.791 0-3.548 0.23-1.705 0.517-3.038 1.851-3.556 3.556-0.23 0.757-0.23 1.687-0.23 3.548">
      </path>
      <path fill="none" stroke="#00b068" style="stroke: var(--color1, #00b068)" stroke-linejoin="round"
        stroke-linecap="round" stroke-miterlimit="4" stroke-width="2.6667"
        d="M16 16c3.314 0 6-2.686 6-6s-2.686-6-6-6c-3.314 0-6 2.686-6 6s2.686 6 6 6z"></path>
    </symbol>
    <symbol id="icon-communication" viewBox="0 0 32 32">
      <path fill="none" stroke="#00b068" style="stroke: var(--color1, #00b068)" stroke-linejoin="round"
        stroke-linecap="round" stroke-miterlimit="4" stroke-width="2.6667"
        d="M8.126 14.972c-0.083-0.534-0.126-1.081-0.126-1.638 0-5.891 4.807-10.667 10.737-10.667s10.737 4.776 10.737 10.667c0 1.331-0.245 2.605-0.693 3.779-0.093 0.244-0.14 0.366-0.161 0.461s-0.029 0.161-0.031 0.257c-0.002 0.097 0.011 0.205 0.037 0.42l0.537 4.36c0.058 0.472 0.087 0.708 0.009 0.88-0.069 0.15-0.191 0.27-0.343 0.335-0.173 0.075-0.409 0.040-0.879-0.029l-4.247-0.623c-0.222-0.033-0.333-0.049-0.434-0.048-0.1 0.001-0.169 0.008-0.267 0.028s-0.225 0.068-0.477 0.163c-1.178 0.441-2.454 0.683-3.787 0.683-0.558 0-1.105-0.042-1.64-0.124M10.175 29.333c3.953 0 7.158-3.283 7.158-7.333s-3.205-7.333-7.158-7.333c-3.953 0-7.158 3.283-7.158 7.333 0 0.814 0.13 1.597 0.369 2.329 0.101 0.309 0.152 0.464 0.168 0.57 0.017 0.11 0.020 0.172 0.014 0.284-0.006 0.107-0.033 0.227-0.086 0.469l-0.815 3.682 3.993-0.545c0.218-0.030 0.327-0.045 0.422-0.044 0.1 0.001 0.153 0.006 0.252 0.026 0.093 0.019 0.232 0.067 0.51 0.165 0.731 0.258 1.516 0.398 2.332 0.398z">
      </path>
    </symbol>
    <symbol id="icon-art" viewBox="0 0 32 32">
      <path fill="none" stroke="#00b068" style="stroke: var(--color1, #00b068)" stroke-linejoin="round"
        stroke-linecap="round" stroke-miterlimit="4" stroke-width="2.6667" d="M17.037 20.001l-5.037-5.037"></path>
      <path fill="none" stroke="#00b068" style="stroke: var(--color1, #00b068)" stroke-linejoin="round"
        stroke-linecap="round" stroke-miterlimit="4" stroke-width="2.6667"
        d="M2.667 29.332c2.667 0 6.144 0.456 7.966-1.367s1.822-4.777 0-6.6c-1.822-1.822-4.777-1.822-6.6 0s0 5.3-1.367 7.967z">
      </path>
      <path fill="none" stroke="#00b068" style="stroke: var(--color1, #00b068)" stroke-linejoin="round"
        stroke-linecap="round" stroke-miterlimit="4" stroke-width="2.6667"
        d="M10.667 21.332c-0.655-0.655-0.983-0.983-1.168-1.326-0.444-0.823-0.425-1.818 0.050-2.623 0.198-0.336 0.538-0.651 1.218-1.28l13.157-12.183c1.159-1.073 2.959-1.038 4.075 0.078s1.151 2.917 0.078 4.075l-12.183 13.157c-0.63 0.68-0.944 1.020-1.28 1.218-0.805 0.475-1.8 0.495-2.623 0.050-0.343-0.185-0.671-0.513-1.326-1.168z">
      </path>
    </symbol>
    <symbol id="icon-urgent-execution" viewBox="0 0 32 32">
      <path fill="none" stroke="#00b068" style="stroke: var(--color1, #00b068)" stroke-linejoin="round"
        stroke-linecap="round" stroke-miterlimit="4" stroke-width="2.6667"
        d="M24.217 2.667h-16.434c-0.617 0-1.117 0.5-1.117 1.117 0 3.554 1.412 6.962 3.925 9.475l1.626 1.626c0.161 0.161 0.242 0.242 0.3 0.32 0.352 0.473 0.352 1.121 0 1.594-0.058 0.077-0.139 0.158-0.3 0.32l-1.626 1.626c-2.513 2.513-3.925 5.921-3.925 9.475 0 0.617 0.5 1.117 1.117 1.117h16.434c0.617 0 1.117-0.5 1.117-1.117 0-3.554-1.412-6.962-3.925-9.475l-1.626-1.626c-0.161-0.161-0.242-0.242-0.3-0.32-0.353-0.473-0.353-1.121 0-1.594 0.058-0.077 0.139-0.158 0.3-0.32l1.626-1.626c2.513-2.513 3.925-5.921 3.925-9.475 0-0.617-0.5-1.117-1.117-1.117z">
      </path>
    </symbol>
    <symbol id="arrow" viewBox="0 0 32 32">
      <path d="M4.75 19.25L19.25 4.75M19.25 4.75H5.75M19.25 4.75V18.25" stroke="#00B068" stroke-width="2"
        stroke-linecap="round" stroke-linejoin="round" />
    </symbol>
  </defs>
</svg>